<?xml version="1.0" encoding="UTF-8" standalone="no"?>
<!-- Created with Inkscape (http://www.inkscape.org/) -->

<svg
   width="540"
   height="540"
   viewBox="0 0 142.875 142.875"
   version="1.1"
   id="svg5"
   inkscape:version="1.2.2 (b0a84865, 2022-12-01)"
   sodipodi:docname="wannier-logo-inkscape-outlined-fonts_squared.svg"
   xml:space="preserve"
   inkscape:export-filename="../wannier-logo-inkscape-lato-fonts_squared.png"
   inkscape:export-xdpi="96"
   inkscape:export-ydpi="96"
   xmlns:inkscape="http://www.inkscape.org/namespaces/inkscape"
   xmlns:sodipodi="http://sodipodi.sourceforge.net/DTD/sodipodi-0.dtd"
   xmlns="http://www.w3.org/2000/svg"
   xmlns:svg="http://www.w3.org/2000/svg"><sodipodi:namedview
     id="namedview7"
     pagecolor="#ffffff"
     bordercolor="#000000"
     borderopacity="0.25"
     inkscape:showpageshadow="2"
     inkscape:pageopacity="0.0"
     inkscape:pagecheckerboard="0"
     inkscape:deskcolor="#d1d1d1"
     inkscape:document-units="mm"
     showgrid="false"
     inkscape:zoom="0.76432192"
     inkscape:cx="24.204461"
     inkscape:cy="304.1912"
     inkscape:window-width="1280"
     inkscape:window-height="705"
     inkscape:window-x="0"
     inkscape:window-y="33"
     inkscape:window-maximized="0"
     inkscape:current-layer="layer1"
     inkscape:lockguides="true" /><defs
     id="defs2"><rect
       x="793.70081"
       y="104.64167"
       width="2848.4827"
       height="532.72119"
       id="rect450" /></defs><g
     inkscape:label="Layer 1"
     inkscape:groupmode="layer"
     id="layer1"
     transform="translate(73.471992,-122.33277)"><text
       xml:space="preserve"
       transform="scale(0.26458333)"
       id="text448"
       style="font-style:normal;font-variant:normal;font-weight:300;font-stretch:normal;font-size:155.767px;font-family:lato;-inkscape-font-specification:'lato, Light';font-variant-ligatures:normal;font-variant-caps:normal;font-variant-numeric:normal;font-variant-east-asian:normal;white-space:pre;shape-inside:url(#rect450);display:inline;opacity:0.646154;fill:#000000;fill-opacity:0.624573;fill-rule:evenodd;stroke:none;stroke-width:1.61;stroke-linecap:round;stroke-linejoin:round;stroke-opacity:0.996403" /><rect
       style="opacity:1;fill:#1a3852;fill-opacity:1;fill-rule:evenodd;stroke:#ffffff;stroke-width:2.25484;stroke-linecap:round;stroke-linejoin:round;stroke-dasharray:none;stroke-opacity:0.996403"
       id="rect741"
       width="140.62016"
       height="140.62016"
       x="-72.344574"
       y="123.46019"
       ry="33.951561" /><g
       aria-label="W90"
       id="text236"
       style="font-size:53.0896px;font-family:lato;-inkscape-font-specification:lato;letter-spacing:0px;opacity:1;fill:#ffffff;fill-rule:evenodd;stroke-width:3.20518;stroke-linecap:round;stroke-linejoin:round;stroke-opacity:0.996403"><path
         d="m -57.831648,175.0031 h 2.256308 q 0.769799,0 0.982158,0.71671 l 9.476493,30.87161 q 0.159269,0.53089 0.265448,1.14142 0.132724,0.61053 0.265448,1.27415 0.132724,-0.66362 0.265448,-1.27415 0.132724,-0.61053 0.318538,-1.14142 l 10.61792,-30.87161 q 0.106179,-0.29199 0.371627,-0.50435 0.265448,-0.21236 0.637075,-0.21236 h 0.743255 q 0.371627,0 0.61053,0.21236 0.238903,0.18582 0.371627,0.50435 l 10.61792,30.87161 q 0.185814,0.53089 0.318538,1.11488 0.159269,0.58398 0.291993,1.2476 0.132724,-0.63707 0.238903,-1.22106 0.106179,-0.61053 0.265448,-1.14142 l 9.4764932,-30.87161 q 0.079634,-0.29199 0.3450824,-0.50435 0.2919928,-0.21236 0.66362,-0.21236 h 2.0704944 l -11.812436,37.5609 h -2.442121 l -11.095727,-32.59702 q -0.212358,-0.63707 -0.371627,-1.35378 -0.159269,0.71671 -0.371627,1.35378 L -43.57709,212.564 h -2.415577 z"
         style="font-weight:300;-inkscape-font-specification:'lato, Light'"
         id="path450" /><path
         d="m 9.3266711,196.58403 q -2.3093975,0 -4.2737127,-0.74326 -1.9377704,-0.7698 -3.3711896,-2.17667 -1.40687439,-1.40688 -2.20321838,-3.37119 -0.79634402,-1.99086 -0.79634402,-4.43298 0,-2.41558 0.87597841,-4.45953 0.9025232,-2.07049 2.49521119,-3.58355 1.592688,-1.51305 3.7693616,-2.36248 2.2032184,-0.87598 4.8046084,-0.87598 2.495212,0 4.565706,0.84943 2.097039,0.84943 3.583548,2.41558 1.513053,1.5396 2.335942,3.71627 0.849434,2.15013 0.849434,4.80461 0,1.45996 -0.318538,2.7872 -0.291993,1.32724 -0.902523,2.65448 -0.583986,1.32724 -1.433419,2.73412 -0.849434,1.38033 -1.937771,2.97301 L 7.5216248,211.95346 Q 7.1234528,212.564 6.2209296,212.564 H 3.9380768 L 15.033803,197.06183 q 0.796344,-1.11488 1.459964,-2.09704 0.690165,-1.0087 1.247606,-1.93777 -1.539599,1.69887 -3.742817,2.62794 -2.176674,0.92907 -4.6718849,0.92907 z M 19.519874,185.88647 q 0,-2.04395 -0.66362,-3.74282 -0.66362,-1.69886 -1.858136,-2.89338 -1.194516,-1.22106 -2.840293,-1.88468 -1.619233,-0.69016 -3.557003,-0.69016 -2.0704949,0 -3.8224516,0.66362 -1.725412,0.66362 -2.9730176,1.85813 -1.2210608,1.19452 -1.9112256,2.86684 -0.6901648,1.64578 -0.6901648,3.63664 0,2.07049 0.6370752,3.74281 0.6370752,1.64578 1.7785016,2.81375 1.1679712,1.14143 2.787204,1.75196 1.6457776,0.61053 3.6366378,0.61053 2.256308,0 4.008265,-0.7698 1.778501,-0.7698 2.999562,-2.0174 1.221061,-1.24761 1.831591,-2.78721 0.637075,-1.56614 0.637075,-3.15883 z"
         style="font-weight:300;-inkscape-font-specification:'lato, Light'"
         id="path452" /><path
         d="m 53.762664,193.77028 q 0,4.93733 -1.061792,8.54742 -1.061792,3.6101 -2.893383,5.97258 -1.831592,2.36249 -4.300258,3.53046 -2.442122,1.14143 -5.229326,1.14143 -2.787204,0 -5.229325,-1.14143 -2.442122,-1.16797 -4.273713,-3.53046 -1.831591,-2.36248 -2.893383,-5.97258 -1.035247,-3.61009 -1.035247,-8.54742 0,-4.93734 1.035247,-8.54743 1.061792,-3.61009 2.893383,-5.97258 1.831591,-2.36249 4.273713,-3.50391 2.442121,-1.16797 5.229325,-1.16797 2.787204,0 5.229326,1.16797 2.468666,1.14142 4.300258,3.50391 1.831591,2.36249 2.893383,5.97258 1.061792,3.61009 1.061792,8.54743 z m -2.65448,0 q 0,-4.56571 -0.875979,-7.80417 -0.875978,-3.23847 -2.362487,-5.28242 -1.459964,-2.07049 -3.450824,-3.02611 -1.964315,-0.95561 -4.140989,-0.95561 -2.176673,0 -4.140988,0.95561 -1.964316,0.95562 -3.450824,3.02611 -1.486509,2.04395 -2.362488,5.28242 -0.875978,3.23846 -0.875978,7.80417 0,4.59225 0.875978,7.83071 0.875979,3.21192 2.362488,5.28242 1.486508,2.04395 3.450824,2.99956 1.964315,0.92907 4.140988,0.92907 2.176674,0 4.140989,-0.92907 1.99086,-0.95561 3.450824,-2.99956 1.486509,-2.0705 2.362487,-5.28242 0.875979,-3.23846 0.875979,-7.83071 z"
         style="font-weight:300;-inkscape-font-specification:'lato, Light'"
         id="path454" /></g></g></svg>
