<?xml version="1.0" encoding="UTF-8" standalone="no"?>
<!-- Created with Inkscape (http://www.inkscape.org/) -->

<svg
   width="1920"
   height="540"
   viewBox="0 0 508 142.875"
   version="1.1"
   id="svg5"
   inkscape:version="1.2.2 (b0a84865, 2022-12-01)"
   sodipodi:docname="wannier.svg"
   xml:space="preserve"
   xmlns:inkscape="http://www.inkscape.org/namespaces/inkscape"
   xmlns:sodipodi="http://sodipodi.sourceforge.net/DTD/sodipodi-0.dtd"
   xmlns="http://www.w3.org/2000/svg"
   xmlns:svg="http://www.w3.org/2000/svg"><sodipodi:namedview
     id="namedview7"
     pagecolor="#ffffff"
     bordercolor="#000000"
     borderopacity="0.25"
     inkscape:showpageshadow="2"
     inkscape:pageopacity="0.0"
     inkscape:pagecheckerboard="0"
     inkscape:deskcolor="#d1d1d1"
     inkscape:document-units="mm"
     showgrid="false"
     inkscape:zoom="0.22242935"
     inkscape:cx="977.83858"
     inkscape:cy="422.6061"
     inkscape:window-width="1280"
     inkscape:window-height="800"
     inkscape:window-x="0"
     inkscape:window-y="32"
     inkscape:window-maximized="0"
     inkscape:current-layer="layer1" /><defs
     id="defs2"><rect
       x="793.70081"
       y="104.64167"
       width="2848.4827"
       height="532.72119"
       id="rect450" /></defs><g
     inkscape:label="Layer 1"
     inkscape:groupmode="layer"
     id="layer1"
     transform="translate(73.471992,-122.33277)"><text
       xml:space="preserve"
       transform="scale(0.26458333)"
       id="text448"
       style="font-style:normal;font-variant:normal;font-weight:300;font-stretch:normal;font-size:155.767px;font-family:lato;-inkscape-font-specification:'lato, Light';font-variant-ligatures:normal;font-variant-caps:normal;font-variant-numeric:normal;font-variant-east-asian:normal;white-space:pre;shape-inside:url(#rect450);display:inline;opacity:0.646154;fill:#000000;fill-opacity:0.624573;fill-rule:evenodd;stroke:none;stroke-width:1.61;stroke-linecap:round;stroke-linejoin:round;stroke-opacity:0.996403" /><rect
       style="opacity:1;fill:#1a3852;fill-opacity:1;fill-rule:evenodd;stroke:none;stroke-width:0.579646;stroke-linecap:round;stroke-linejoin:round;stroke-opacity:0.996403"
       id="rect741"
       width="508"
       height="142.875"
       x="-73.471992"
       y="122.33277" /><g
       aria-label="WANNIER90"
       id="text236"
       style="font-size:71.7963px;font-family:lato;-inkscape-font-specification:lato;letter-spacing:6.51017px;opacity:1;fill:#ffffff;fill-rule:evenodd;stroke-width:4.33456;stroke-linecap:round;stroke-linejoin:round;stroke-opacity:0.996403"><path
         d="m -51.819076,168.39027 h 3.051343 q 1.041047,0 1.328232,0.96925 l 12.81564,41.74955 q 0.215389,0.71797 0.358981,1.54362 0.179491,0.82566 0.358982,1.72311 0.179491,-0.89745 0.358981,-1.72311 0.179491,-0.82565 0.430778,-1.54362 l 14.359261,-41.74955 q 0.143592,-0.39488 0.502574,-0.68206 0.358981,-0.28719 0.861556,-0.28719 h 1.005148 q 0.502574,0 0.825657,0.28719 0.323084,0.25129 0.502574,0.68206 l 14.35926099,41.74955 q 0.25128706,0.71797 0.43077781,1.50773 0.21538891,0.78975 0.39487967,1.68721 0.17949076,-0.86156 0.32308336,-1.65132 0.14359261,-0.82565 0.35898152,-1.54362 L 13.623254,169.35952 q 0.107695,-0.39488 0.466676,-0.68206 0.39488,-0.28719 0.897454,-0.28719 H 17.78744 L 1.8127626,219.18616 H -1.4898673 L -16.495295,175.10323 q -0.287185,-0.86156 -0.502574,-1.83081 -0.215389,0.96925 -0.502574,1.83081 l -15.041325,44.08293 H -35.8085 Z"
         style="font-weight:300;-inkscape-font-specification:'lato, Light'"
         id="path3454" /><path
         d="m 68.380418,219.18616 h -2.835954 q -0.502574,0 -0.825657,-0.25129 -0.323084,-0.28719 -0.502574,-0.71796 L 58.221241,203.46277 H 33.272026 l -5.959093,14.75414 q -0.143593,0.39488 -0.502574,0.68206 -0.358982,0.28719 -0.861556,0.28719 h -2.800055 l 20.785029,-50.79589 h 3.661612 z M 34.384869,200.73451 H 57.144297 L 46.769731,175.06733 q -0.251287,-0.61027 -0.502574,-1.36413 -0.251287,-0.78976 -0.502574,-1.65132 -0.251287,0.86156 -0.502574,1.65132 -0.251287,0.75386 -0.502574,1.40003 z"
         style="font-weight:300;-inkscape-font-specification:'lato, Light'"
         id="path3456" /><path
         d="m 84.726593,168.39027 q 0.502575,0 0.78976,0.1436 0.287185,0.10769 0.610268,0.53847 l 32.882709,44.01113 q -0.1077,-1.07694 -0.1077,-2.08209 v -42.61111 h 3.23084 v 50.79589 h -1.75901 q -0.82566,0 -1.32823,-0.71797 L 86.018927,174.38526 q 0.107694,1.07695 0.107694,2.0462 v 42.7547 h -3.194935 v -50.79589 h 1.794907 z"
         style="font-weight:300;-inkscape-font-specification:'lato, Light'"
         id="path3458" /><path
         d="m 145.51468,168.39027 q 0.50257,0 0.78976,0.1436 0.28718,0.10769 0.61027,0.53847 l 32.8827,44.01113 q -0.10769,-1.07694 -0.10769,-2.08209 v -42.61111 h 3.23083 v 50.79589 h -1.75901 q -0.82565,0 -1.32823,-0.71797 l -33.0263,-44.08293 q 0.1077,1.07695 0.1077,2.0462 v 42.7547 h -3.19494 v -50.79589 h 1.79491 z"
         style="font-weight:300;-inkscape-font-specification:'lato, Light'"
         id="path3460" /><path
         d="m 209.53358,219.18616 h -3.69751 v -50.79589 h 3.69751 z"
         style="font-weight:300;-inkscape-font-specification:'lato, Light'"
         id="path3462" /><path
         d="m 262.92672,168.39027 v 3.05135 H 236.1826 v 20.53374 h 22.25686 v 2.97955 H 236.1826 v 21.1799 h 26.74412 v 3.05135 h -30.44163 v -50.79589 z"
         style="font-weight:300;-inkscape-font-specification:'lato, Light'"
         id="path3464" /><path
         d="m 286.16539,196.21134 v 22.97482 h -3.66161 v -50.79589 h 12.95923 q 8.79505,0 13.13872,3.41033 4.34368,3.37442 4.34368,9.94379 0,2.90775 -1.00515,5.31292 -1.00515,2.40518 -2.90775,4.23598 -1.8667,1.79491 -4.52317,2.97955 -2.65646,1.14874 -5.99499,1.50772 0.86156,0.53847 1.54362,1.43593 l 17.4824,21.96967 h -3.19493 q -0.57437,0 -1.00515,-0.21539 -0.39488,-0.21539 -0.78976,-0.71796 l -16.26186,-20.60554 q -0.61027,-0.78976 -1.32823,-1.11285 -0.68207,-0.32308 -2.15389,-0.32308 z m 0,-2.72826 h 8.83094 q 3.37443,0 6.03089,-0.78976 2.69237,-0.82566 4.52317,-2.33338 1.86671,-1.50772 2.83596,-3.62571 0.96925,-2.11799 0.96925,-4.77446 0,-5.42062 -3.55392,-8.04118 -3.55392,-2.62057 -10.33867,-2.62057 h -9.29762 z"
         style="font-weight:300;-inkscape-font-specification:'lato, Light'"
         id="path3466" /><path
         d="m 346.2714,197.57547 q -3.12314,0 -5.7796,-1.00515 -2.62057,-1.04104 -4.55907,-2.94365 -1.9026,-1.9026 -2.97954,-4.55906 -1.07695,-2.69236 -1.07695,-5.99499 0,-3.26673 1.18464,-6.03089 1.22054,-2.80006 3.37443,-4.84625 2.15389,-2.0462 5.09753,-3.19494 2.97955,-1.18464 6.49757,-1.18464 3.37443,0 6.17448,1.14874 2.83596,1.14874 4.84625,3.26674 2.0462,2.08209 3.15904,5.02574 1.14874,2.90775 1.14874,6.49756 0,1.9744 -0.43078,3.76931 -0.39488,1.79491 -1.22053,3.58981 -0.78976,1.79491 -1.9385,3.69751 -1.14875,1.86671 -2.62057,4.0206 l -13.31821,19.52859 q -0.53848,0.82566 -1.75901,0.82566 h -3.08724 l 15.00542,-20.96452 q 1.07695,-1.50773 1.9744,-2.83596 0.93335,-1.36413 1.68721,-2.62056 -2.08209,2.29748 -5.06164,3.55391 -2.94364,1.25644 -6.31807,1.25644 z m 13.78489,-14.46695 q 0,-2.76416 -0.89745,-5.06164 -0.89746,-2.29749 -2.51287,-3.9129 -1.61542,-1.65132 -3.84111,-2.54877 -2.18978,-0.93335 -4.81035,-0.93335 -2.80005,0 -5.16933,0.89745 -2.33338,0.89745 -4.0206,2.51287 -1.65131,1.61542 -2.58466,3.877 -0.93335,2.22569 -0.93335,4.91805 0,2.80005 0.86155,5.06164 0.86156,2.22568 2.40518,3.8052 1.57952,1.54362 3.7693,2.36928 2.22569,0.82566 4.91805,0.82566 3.05134,0 5.42062,-1.04105 2.40518,-1.04105 4.05649,-2.72826 1.65132,-1.68721 2.47697,-3.7693 0.86156,-2.118 0.86156,-4.27188 z"
         style="font-weight:300;-inkscape-font-specification:'lato, Light'"
         id="path3468" /><path
         d="m 412.87509,193.77027 q 0,6.67705 -1.43593,11.5592 -1.43592,4.88215 -3.9129,8.07708 -2.47697,3.19494 -5.8155,4.77446 -3.30263,1.54362 -7.07193,1.54362 -3.76931,0 -7.07194,-1.54362 -3.30263,-1.57952 -5.7796,-4.77446 -2.47697,-3.19493 -3.9129,-8.07708 -1.40003,-4.88215 -1.40003,-11.5592 0,-6.67706 1.40003,-11.55921 1.43593,-4.88215 3.9129,-8.07708 2.47697,-3.19494 5.7796,-4.73856 3.30263,-1.57952 7.07194,-1.57952 3.7693,0 7.07193,1.57952 3.33853,1.54362 5.8155,4.73856 2.47698,3.19493 3.9129,8.07708 1.43593,4.88215 1.43593,11.55921 z m -3.58982,0 q 0,-6.17449 -1.18464,-10.55406 -1.18463,-4.37957 -3.19493,-7.14373 -1.9744,-2.80006 -4.66676,-4.09239 -2.65646,-1.29234 -5.60011,-1.29234 -2.94365,0 -5.60011,1.29234 -2.65647,1.29233 -4.66676,4.09239 -2.0103,2.76416 -3.19494,7.14373 -1.18464,4.37957 -1.18464,10.55406 0,6.21038 1.18464,10.58995 1.18464,4.34368 3.19494,7.14373 2.01029,2.76416 4.66676,4.05649 2.65646,1.25644 5.60011,1.25644 2.94365,0 5.60011,-1.25644 2.69236,-1.29233 4.66676,-4.05649 2.0103,-2.80005 3.19493,-7.14373 1.18464,-4.37957 1.18464,-10.58995 z"
         style="font-weight:300;-inkscape-font-specification:'lato, Light'"
         id="path3470" /></g></g></svg>
